<?xml version="1.0" ?><svg viewBox="0 0 24 24" xmlns="http://www.w3.org/2000/svg"><title/><g id="Slack"><g data-name="&lt;Group&gt;" id="_Group_"><path d="M12.5,3.43V3.8a1.93,1.93,0,0,0,0,.4L15.67,19a1.93,1.93,0,0,0,1.89,1.53h0a1.93,1.93,0,0,0,1.93-1.93V18.2a1.93,1.93,0,0,0,0-.4L16.33,3A1.93,1.93,0,0,0,14.43,1.5h0A1.93,1.93,0,0,0,12.5,3.43Z" data-name="&lt;Path&gt;" id="_Path_" style="fill:none;stroke:#303c42;stroke-linecap:round;stroke-linejoin:round"/><path d="M4.5,5.43V5.8a1.93,1.93,0,0,0,0,.4L7.67,21A1.93,1.93,0,0,0,9.57,22.5h0a1.93,1.93,0,0,0,1.93-1.93V20.2a1.93,1.93,0,0,0,0-.4L8.33,5A1.93,1.93,0,0,0,6.43,3.5h0A1.93,1.93,0,0,0,4.5,5.43Z" data-name="&lt;Path&gt;" id="_Path_2" style="fill:none;stroke:#303c42;stroke-linecap:round;stroke-linejoin:round"/><path d="M3.43,11.5H3.8a1.93,1.93,0,0,0,.4,0L19,8.33A1.93,1.93,0,0,0,20.5,6.43h0A1.93,1.93,0,0,0,18.57,4.5H18.2a1.93,1.93,0,0,0-.4,0L3,7.67A1.93,1.93,0,0,0,1.5,9.57h0A1.93,1.93,0,0,0,3.43,11.5Z" data-name="&lt;Path&gt;" id="_Path_3" style="fill:none;stroke:#303c42;stroke-linecap:round;stroke-linejoin:round"/><path d="M5.43,19.5H5.8a1.93,1.93,0,0,0,.4,0L21,16.33a1.93,1.93,0,0,0,1.53-1.89h0a1.93,1.93,0,0,0-1.93-1.93H20.2a1.93,1.93,0,0,0-.4,0L5,15.67A1.93,1.93,0,0,0,3.5,17.57h0A1.93,1.93,0,0,0,5.43,19.5Z" data-name="&lt;Path&gt;" id="_Path_4" style="fill:none;stroke:#303c42;stroke-linecap:round;stroke-linejoin:round"/></g></g></svg>